<?xml version="1.0" encoding="utf-8"?>
<!-- Generator: Adobe Illustrator 27.9.0, SVG Export Plug-In . SVG Version: 6.00 Build 0)  -->
<svg version="1.1" id="Layer_1" xmlns="http://www.w3.org/2000/svg" xmlns:xlink="http://www.w3.org/1999/xlink" x="0px" y="0px"
	 viewBox="0 0 354 93" style="enable-background:new 0 0 354 93;" xml:space="preserve">
<style type="text/css">
	.st0{fill:#E81300;stroke:#000000;stroke-miterlimit:10;}
</style>
<g>
	<polygon class="st0" points="18.5,88 34.05,86.58 34.05,43.24 52.51,84.45 70,83.74 70,47.5 70,36.13 70,7.71 54.45,7.71 
		54.45,11.97 54.45,19.79 54.45,24.76 54.45,29.74 54.45,35.42 54.45,41.11 54.45,46.79 54.45,50.34 54.45,53.89 54.45,55.32 
		47.65,39.68 43.76,29.03 35.99,12.68 33.08,7 18.5,7.71 18.5,14.11 18.5,24.76 18.5,37.55 18.5,49.63 18.5,58.87 18.5,87.29 	"/>
</g>
<g>
	<polygon class="st0" points="80.32,8 117,8 117,22.43 93.36,22.43 93.36,39.9 111.29,39.9 111.29,52.81 92.54,53.57 93.36,74.07 
		117,72.55 117,85.46 79.5,88.5 79.5,36.86 79.5,8 	"/>
</g>
<polygon class="st0" points="123.5,8 123.5,21.86 139.67,21.09 139.67,85 155.83,84.23 155.83,21.09 172,21.09 172,8 "/>
<polyline class="st0" points="176.42,8 218,8 218,22.67 218,23.49 191.21,23.49 191.21,41.42 210.61,41.42 211.53,41.42 
	211.53,56.08 190.28,56.08 191.21,88.68 191.21,89.5 175.5,89.5 175.5,60.97 175.5,41.42 175.5,27.56 175.5,16.15 175.5,8 176.42,8 
	"/>
<polygon class="st0" points="226.47,8 241.93,8 241.93,35.35 241.93,52.55 241.93,67.4 241.93,73.65 269,74.43 269,87.72 269,88.5 
	225.5,86.94 225.5,69.74 225.5,55.67 225.5,40.04 225.5,23.63 225.5,12.69 225.5,8 "/>
<polyline class="st0" points="276.5,7 293,7 293,25.81 293,42.26 293,51.67 293,88.5 276.5,87.72 276.5,73.61 276.5,57.94 
	276.5,43.05 276.5,32.08 276.5,14.84 276.5,7 276.5,7 "/>
<g>
	<polygon class="st0" points="299,7.43 313.54,45.58 304.81,68.06 298.99,83.29 311.68,84.61 320.43,63.57 328.87,87.33 
		343.8,89.35 333.1,62.73 326.97,46.17 329.89,38.92 342.25,7.01 328.83,7.14 320.8,25.28 320.08,27.45 317.78,21.69 314.72,13.06 
		312.42,7.3 	"/>
</g>
</svg>
